<svg width="214" height="204" viewBox="0 0 214 204" fill="none" xmlns="http://www.w3.org/2000/svg">
<g filter="url(#filter0_d_28_46)">
<path d="M43.0162 84.4667C38.2654 78.7677 42.1865 70.0093 49.8105 69.2906V69.2906C55.4501 68.7589 59.505 63.5618 58.4416 58.1896V58.1896C57.025 51.0326 64.4224 45.0138 71.3647 47.675L72.1069 47.9595C77.327 49.9605 83.3062 47.1212 85.0199 41.8277V41.8277C87.3089 34.757 96.6361 32.6908 101.535 38.1693L102.079 38.7773C105.782 42.9178 112.388 43.0781 116.519 39.1277V39.1277C122.096 33.7949 131.387 36.3713 133.102 43.6447V43.6447C134.378 49.0597 140.102 52.2763 145.633 50.6177L146.171 50.4563C153.518 48.253 160.301 54.6544 158.252 61.8575V61.8575C156.726 67.2247 160.175 72.6019 165.751 73.5474L166.661 73.7017C174.042 74.9534 176.849 83.6998 171.597 89.081V89.081C167.654 93.1203 168.095 99.502 172.543 102.777L172.935 103.066C178.895 107.454 177.198 116.675 169.984 119.1V119.1C164.583 120.916 161.912 126.883 164.286 131.828V131.828C167.457 138.433 161.641 145.995 154.171 144.979L153.679 144.912C148.105 144.153 142.957 148.286 142.631 153.781V153.781C142.197 161.101 133.611 165.262 127.534 161.098L126.785 160.584C122.194 157.438 115.718 158.821 112.707 163.59V163.59C108.665 169.991 99.0963 169.812 95.6645 163.271L95.413 162.792C92.8295 157.867 86.4129 156.198 81.4177 159.089V159.089C74.7081 162.972 66.2993 158.424 66.4713 150.917V150.917C66.5987 145.355 61.8882 140.961 56.1747 141.312L55.3356 141.363C47.776 141.827 42.8643 134.031 46.6388 127.558V127.558C49.4645 122.712 47.4651 116.661 42.3208 114.491L41.5894 114.183C34.7478 111.297 34.1755 102.07 40.5896 98.0648V98.0648C45.4041 95.0582 46.5304 88.6824 43.0162 84.4667V84.4667Z" fill="url(#paint0_linear_28_46)"/>
</g>
<defs>
<filter id="filter0_d_28_46" x="9.967" y="25.8276" width="185.033" height="177.816" filterUnits="userSpaceOnUse" color-interpolation-filters="sRGB">
<feFlood flood-opacity="0" result="BackgroundImageFix"/>
<feColorMatrix in="SourceAlpha" type="matrix" values="0 0 0 0 0 0 0 0 0 0 0 0 0 0 0 0 0 0 127 0" result="hardAlpha"/>
<feOffset dx="-3.84326" dy="13.0671"/>
<feGaussianBlur stdDeviation="11.1454"/>
<feComposite in2="hardAlpha" operator="out"/>
<feColorMatrix type="matrix" values="0 0 0 0 0.0775104 0 0 0 0 0.241623 0 0 0 0 0.157958 0 0 0 0.46 0"/>
<feBlend mode="normal" in2="BackgroundImageFix" result="effect1_dropShadow_28_46"/>
<feBlend mode="normal" in="SourceGraphic" in2="effect1_dropShadow_28_46" result="shape"/>
</filter>
<linearGradient id="paint0_linear_28_46" x1="161.51" y1="39.4189" x2="122.596" y2="150.962" gradientUnits="userSpaceOnUse">
<stop stop-color="#237249"/>
<stop offset="1" stop-color="#35C66B"/>
</linearGradient>
</defs>
</svg>
